<svg width="18" height="18" viewBox="0 0 18 18" fill="none" xmlns="http://www.w3.org/2000/svg">
<g clip-path="url(#clip0_274_1575)">
<path d="M9.64945 2.24997L16.7939 14.625C16.8598 14.739 16.8944 14.8683 16.8944 15C16.8944 15.1316 16.8598 15.2609 16.794 15.375C16.7281 15.489 16.6335 15.5837 16.5194 15.6495C16.4054 15.7153 16.2761 15.75 16.1444 15.75H1.85545C1.7238 15.75 1.59447 15.7153 1.48046 15.6495C1.36644 15.5837 1.27177 15.489 1.20594 15.375C1.14012 15.2609 1.10547 15.1316 1.10547 15C1.10547 14.8683 1.14012 14.739 1.20595 14.625L8.35045 2.24997C8.41628 2.13596 8.51096 2.04129 8.62497 1.97547C8.73898 1.90965 8.8683 1.875 8.99995 1.875C9.1316 1.875 9.26092 1.90965 9.37493 1.97547C9.48894 2.04129 9.58362 2.13596 9.64945 2.24997ZM8.24995 12V13.5H9.74995V12H8.24995ZM8.24995 6.74997V10.5H9.74995V6.74997H8.24995Z" fill="#E74C3C"/>
</g>
<defs>
<clipPath id="clip0_274_1575">
<rect width="18" height="18" fill="white"/>
</clipPath>
</defs>
</svg>
