<svg width="57" height="57" viewBox="0 0 57 57" fill="none" xmlns="http://www.w3.org/2000/svg">
<path d="M47.5 52.25H9.5C8.87011 52.25 8.26602 51.9998 7.82062 51.5544C7.37522 51.109 7.125 50.5049 7.125 49.875V7.125C7.125 6.49511 7.37522 5.89102 7.82062 5.44562C8.26602 5.00022 8.87011 4.75 9.5 4.75H47.5C48.1299 4.75 48.734 5.00022 49.1794 5.44562C49.6248 5.89102 49.875 6.49511 49.875 7.125V49.875C49.875 50.5049 49.6248 51.109 49.1794 51.5544C48.734 51.9998 48.1299 52.25 47.5 52.25ZM16.625 9.5H11.875V47.5H45.125V9.5H33.25V30.875L24.9375 26.125L16.625 30.875V9.5Z" fill="url(#paint0_linear_5_793)"/>
<defs>
<linearGradient id="paint0_linear_5_793" x1="9.01172" y1="2.53001" x2="56.2248" y2="44.045" gradientUnits="userSpaceOnUse">
<stop stop-color="#AB67FF"/>
<stop offset="1" stop-color="#00D48A"/>
</linearGradient>
</defs>
</svg>
