<svg width="22" height="22" viewBox="0 0 22 22" fill="none" xmlns="http://www.w3.org/2000/svg">
<path d="M6.41671 4.58317V1.83317C6.41671 1.59006 6.51328 1.3569 6.68519 1.18499C6.8571 1.01308 7.09026 0.916504 7.33337 0.916504H14.6667C14.9098 0.916504 15.143 1.01308 15.3149 1.18499C15.4868 1.3569 15.5834 1.59006 15.5834 1.83317V4.58317H19.25C19.4932 4.58317 19.7263 4.67975 19.8982 4.85166C20.0701 5.02356 20.1667 5.25672 20.1667 5.49984V18.3332C20.1667 18.5763 20.0701 18.8094 19.8982 18.9814C19.7263 19.1533 19.4932 19.2498 19.25 19.2498H2.75004C2.50693 19.2498 2.27377 19.1533 2.10186 18.9814C1.92995 18.8094 1.83337 18.5763 1.83337 18.3332V5.49984C1.83337 5.25672 1.92995 5.02356 2.10186 4.85166C2.27377 4.67975 2.50693 4.58317 2.75004 4.58317H6.41671ZM14.6667 13.7498H11.9167V14.6665H10.0834V13.7498H7.33337V17.4165H14.6667V13.7498ZM7.33337 6.4165V11.9165H10.0834V10.9998H11.9167V11.9165H14.6667V6.4165H7.33337ZM5.50004 11.9165V6.4165H3.66671V11.9165H5.50004ZM16.5 11.9165H18.3334V6.4165H16.5V11.9165ZM5.50004 13.7498H3.66671V17.4165H5.50004V13.7498ZM16.5 13.7498V17.4165H18.3334V13.7498H16.5ZM8.25004 2.74984V4.58317H13.75V2.74984H8.25004Z" fill="none"/>
</svg>
