<svg width="57" height="57" viewBox="0 0 57 57" fill="none" xmlns="http://www.w3.org/2000/svg">
<path d="M28.5 52.25C15.3829 52.25 4.75 41.6171 4.75 28.5C4.75 15.3829 15.3829 4.75 28.5 4.75C41.6171 4.75 52.25 15.3829 52.25 28.5C52.25 41.6171 41.6171 52.25 28.5 52.25ZM28.5 47.5C33.5391 47.5 38.3718 45.4982 41.935 41.935C45.4982 38.3718 47.5 33.5391 47.5 28.5C47.5 23.4609 45.4982 18.6282 41.935 15.065C38.3718 11.5018 33.5391 9.5 28.5 9.5C23.4609 9.5 18.6282 11.5018 15.065 15.065C11.5018 18.6282 9.5 23.4609 9.5 28.5C9.5 33.5391 11.5018 38.3718 15.065 41.935C18.6282 45.4982 23.4609 47.5 28.5 47.5V47.5ZM30.875 28.5H40.375V33.25H26.125V16.625H30.875V28.5Z" fill="url(#paint0_linear_5_767)"/>
<defs>
<linearGradient id="paint0_linear_5_767" x1="6.84635" y1="2.53001" x2="54.4376" y2="49.0273" gradientUnits="userSpaceOnUse">
<stop stop-color="#AB67FF"/>
<stop offset="1" stop-color="#00D48A"/>
</linearGradient>
</defs>
</svg>
