<svg width="22" height="22" viewBox="0 0 22 22" fill="none" xmlns="http://www.w3.org/2000/svg">
<path d="M3.66671 13.7502H5.50004V18.3335H16.5V3.66683H5.50004V8.25016H3.66671V2.75016C3.66671 2.50705 3.76328 2.27389 3.93519 2.10198C4.1071 1.93007 4.34026 1.8335 4.58337 1.8335H17.4167C17.6598 1.8335 17.893 1.93007 18.0649 2.10198C18.2368 2.27389 18.3334 2.50705 18.3334 2.75016V19.2502C18.3334 19.4933 18.2368 19.7264 18.0649 19.8983C17.893 20.0703 17.6598 20.1668 17.4167 20.1668H4.58337C4.34026 20.1668 4.1071 20.0703 3.93519 19.8983C3.76328 19.7264 3.66671 19.4933 3.66671 19.2502V13.7502ZM9.16671 10.0835V7.3335L13.75 11.0002L9.16671 14.6668V11.9168H1.83337V10.0835H9.16671Z" fill="none"/>
</svg>
