<svg width="107" height="41" viewBox="0 0 107 41" fill="none" xmlns="http://www.w3.org/2000/svg">
<path d="M37.0326 4.81812L40.6752 11.3444H39.461L38.6262 9.75074H34.2248L33.39 11.3444H32.3276L35.8943 4.81812H37.0326ZM38.1709 8.8401L36.4255 5.50109L34.6801 8.8401H38.1709Z" fill="#1A1A1A"/>
<path d="M43.6347 7.62592L47.6567 4.81812H49.2503L44.5453 7.92946L49.7815 11.3444H47.9602L43.6347 8.46067V11.3444H42.5723V4.81812H43.6347V7.62592Z" fill="#1A1A1A"/>
<path d="M55.7007 4.81812L59.3432 11.3444H58.1291L57.2943 9.75074H52.8929L52.0581 11.3444H50.9957L54.5624 4.81812H55.7007ZM56.839 8.8401L55.0936 5.50109L53.3482 8.8401H56.839Z" fill="#1A1A1A"/>
<path d="M61.544 12.5585H60.5575V10.4337H61.3164L63.9724 4.81812H65.1107L67.8426 10.4337H68.6015V12.5585H67.6149L67.5391 11.3444H61.544V12.5585ZM66.6284 10.4337L64.4277 5.72875L62.3029 10.4337H66.6284Z" fill="#1A1A1A"/>
<path d="M76.7972 4.81812V5.72875H71.6369V7.55003H74.8241V8.38478H71.6369V10.4337H76.873V11.3444H70.5745V4.81812H76.7972Z" fill="#1A1A1A"/>
<path d="M83.0958 9.06776L86.0553 4.81812H87.0419V11.3444H86.0553V6.94294C86.0553 6.86705 86.0553 6.86705 86.0553 6.86705C86.0553 6.5635 86.0553 6.5635 86.0553 6.48762V6.0323C85.9036 6.41173 85.7518 6.63939 85.6759 6.71528L83.1716 10.3578H82.944L80.3638 6.79117C80.2121 6.56351 80.0603 6.33585 79.9844 6.0323C80.0603 6.48762 80.0603 6.79116 80.0603 7.01882V11.4202H79.1497V4.894H80.0603L83.0958 9.06776Z" fill="#1A1A1A"/>
<path d="M95.9965 11.3444V7.62592C95.9965 7.24648 95.9965 7.47414 96.0724 6.25996C95.9206 6.48762 95.617 6.79116 95.5411 6.86705L90.3809 11.3444H89.6979V4.81812H90.7603V8.38478C90.7603 8.68833 90.7603 9.37131 90.6844 9.90251C90.9121 9.52308 91.2915 9.21953 91.3674 9.14365L96.3759 4.81812H97.0589V11.3444H95.9965Z" fill="#1A1A1A"/>
<path d="M105.255 11.3444V8.8401H103.357L100.853 11.3444H99.2595L102.143 8.76421H101.157C100.853 8.76421 100.398 8.76421 100.094 8.46067C99.8666 8.15712 99.7907 7.77769 99.7907 7.55003V6.10819C99.7907 5.88053 99.7907 5.42521 100.094 5.12166C100.246 4.96989 100.625 4.81812 101.157 4.81812H106.393V11.3444H105.255ZM101.536 5.65287C101.384 5.65287 101.157 5.65287 101.005 5.80464C100.853 5.95641 100.853 6.18407 100.853 6.33585V7.24648C100.853 7.39826 100.853 7.62592 101.005 7.77769C101.157 7.92946 101.384 7.92946 101.536 7.92946H105.255V5.65287H101.536Z" fill="#1A1A1A"/>
<path d="M14.7979 11.2684C14.5702 11.2684 14.3426 11.2684 14.1149 11.2684C14.1149 11.0408 14.1149 10.8131 14.1149 10.5855C13.8872 2.08618 6.22269 -1.25283 0 0.416676C5.76738 1.25143 10.9277 5.42519 11.1553 13.0897C11.1553 13.4692 11.1553 13.7727 11.1553 14.1521C11.5348 14.1521 11.8383 14.1521 12.2177 14.1521C19.8823 14.3798 24.056 19.5401 24.8908 25.3075C26.6362 19.1606 23.2972 11.4961 14.7979 11.2684Z" fill="url(#paint0_linear_4_1331)"/>
<path d="M45.4561 28.1913C47.2774 27.5083 48.5674 25.7629 48.5674 23.4863C48.5674 19.1608 45.4561 17.1877 40.2958 17.1877H32.0242V40.2572H42.5724C46.1391 40.2572 49.2504 37.753 49.2504 33.9587C49.3263 30.1643 47.2774 28.6466 45.4561 28.1913ZM39.3093 21.5892C41.8135 21.5892 42.5724 22.7275 42.5724 24.0934C42.5724 25.4594 42.0412 26.8253 40.2958 26.8253H38.0192V21.5892H39.3093ZM40.3717 35.6282H38.0951V30.6955H40.5993C42.1171 30.6955 43.1036 31.3785 43.1036 33.1998C43.1036 34.7175 42.0412 35.6282 40.3717 35.6282Z" fill="#1A1A1A"/>
<path d="M101.536 17.4912L98.349 27.8877L93.9475 17.4912H87.4972L95.4653 33.9586C95.3135 34.4898 95.01 35.0969 94.1752 35.6281C93.4922 36.0075 92.8851 36.0834 92.2022 36.0834C91.3674 36.0834 90.6085 35.8557 89.7738 35.6281V40.1813C91.0639 40.5607 92.278 40.6366 93.0369 40.6366C94.5546 40.6366 96.3759 40.3331 98.1213 38.8153C100.018 37.2217 101.081 34.4139 101.612 32.9721L107 17.4912H101.536Z" fill="#1A1A1A"/>
<path d="M56.9908 16.6565C55.6249 16.6565 53.2724 16.8842 51.3752 18.0225C52.5894 19.1607 53.576 20.5267 54.2589 22.0444C54.5625 21.8168 54.9419 21.665 55.4731 21.5132C56.0043 21.4373 56.3838 21.3615 56.8391 21.3615C58.1291 21.3615 59.2674 21.8168 60.254 23.2586C60.9369 24.321 61.1646 25.4593 61.3164 26.1423H55.6249C55.7767 26.9771 55.8526 27.8118 55.8526 28.6466C55.8526 29.3295 55.7767 30.0125 55.7008 30.6955H61.3164C61.1646 31.9097 60.6334 33.2756 59.7986 34.1863C58.8121 35.4005 57.5979 35.8558 56.5355 35.8558C55.7008 35.8558 54.9419 35.6281 54.2589 35.1728C53.576 36.5388 52.6653 37.8288 51.6029 38.9671C51.9064 39.1189 53.1965 39.726 53.4242 39.8778C53.6518 39.9537 53.8036 40.0295 54.0313 40.1054C55.0937 40.4849 56.3838 40.7125 57.4462 40.7125C59.1916 40.7125 60.9369 40.2572 62.4547 39.3466C63.593 38.7395 64.5036 37.9047 65.2625 36.9182C66.8561 34.7175 67.6908 31.6061 67.6908 28.4948C67.6908 26.0664 67.2355 22.8033 64.9589 20.2232C63.5171 18.326 61.0128 16.6565 56.9908 16.6565Z" fill="#1A1A1A"/>
<path d="M71.7887 17.4912V40.1054H77.7078V21.665H85.9795L84.2341 17.4912H71.7887Z" fill="#1A1A1A"/>
<defs>
<linearGradient id="paint0_linear_4_1331" x1="1.11834" y1="-1.18278" x2="26.4751" y2="23.6228" gradientUnits="userSpaceOnUse">
<stop stop-color="#AB67FF"/>
<stop offset="1" stop-color="#00D48A"/>
</linearGradient>
</defs>
</svg>
