<svg width="60" height="60" viewBox="0 0 60 60" fill="none" xmlns="http://www.w3.org/2000/svg">
<g clip-path="url(#clip0_83_414)">
<path d="M30 5C43.805 5 55 14.945 55 27.2225C54.998 30.9055 53.5339 34.4371 50.9294 37.0411C48.3248 39.6452 44.793 41.1087 41.11 41.11H36.195C33.89 41.11 32.0275 42.9725 32.0275 45.2775C32.0275 46.3325 32.445 47.305 33.0825 48.0275C33.75 48.7775 34.1675 49.75 34.1675 50.8325C34.1675 53.14 32.25 55 30 55C16.195 55 5 43.805 5 30C5 16.195 16.195 5 30 5ZM18.75 30C19.7446 30 20.6984 29.6049 21.4017 28.9017C22.1049 28.1984 22.5 27.2446 22.5 26.25C22.5 25.2554 22.1049 24.3016 21.4017 23.5983C20.6984 22.8951 19.7446 22.5 18.75 22.5C17.7554 22.5 16.8016 22.8951 16.0983 23.5983C15.3951 24.3016 15 25.2554 15 26.25C15 27.2446 15.3951 28.1984 16.0983 28.9017C16.8016 29.6049 17.7554 30 18.75 30ZM41.25 30C42.2446 30 43.1984 29.6049 43.9016 28.9017C44.6049 28.1984 45 27.2446 45 26.25C45 25.2554 44.6049 24.3016 43.9016 23.5983C43.1984 22.8951 42.2446 22.5 41.25 22.5C40.2554 22.5 39.3016 22.8951 38.5984 23.5983C37.8951 24.3016 37.5 25.2554 37.5 26.25C37.5 27.2446 37.8951 28.1984 38.5984 28.9017C39.3016 29.6049 40.2554 30 41.25 30ZM30 22.5C30.9946 22.5 31.9484 22.1049 32.6517 21.4017C33.3549 20.6984 33.75 19.7446 33.75 18.75C33.75 17.7554 33.3549 16.8016 32.6517 16.0983C31.9484 15.3951 30.9946 15 30 15C29.0054 15 28.0516 15.3951 27.3483 16.0983C26.6451 16.8016 26.25 17.7554 26.25 18.75C26.25 19.7446 26.6451 20.6984 27.3483 21.4017C28.0516 22.1049 29.0054 22.5 30 22.5Z" fill="url(#paint0_linear_83_414)"/>
</g>
<defs>
<linearGradient id="paint0_linear_83_414" x1="7.20669" y1="2.66317" x2="57.3027" y2="51.6077" gradientUnits="userSpaceOnUse">
<stop stop-color="#AB67FF"/>
<stop offset="1" stop-color="#00D48A"/>
</linearGradient>
<clipPath id="clip0_83_414">
<rect width="60" height="60" fill="white"/>
</clipPath>
</defs>
</svg>
