<svg width="22" height="22" viewBox="0 0 22 22" fill="none" xmlns="http://www.w3.org/2000/svg">
<path d="M5.00038 13.7502L0.916626 16.9585V2.75016C0.916626 2.50705 1.0132 2.27389 1.18511 2.10198C1.35702 1.93007 1.59018 1.8335 1.83329 1.8335H15.5833C15.8264 1.8335 16.0596 1.93007 16.2315 2.10198C16.4034 2.27389 16.5 2.50705 16.5 2.75016V13.7502H5.00038ZM4.36604 11.9168H14.6666V3.66683H2.74996V13.1864L4.36604 11.9168ZM7.33329 15.5835H16.7172L18.3333 16.8531V7.3335H19.25C19.4931 7.3335 19.7262 7.43007 19.8981 7.60198C20.07 7.77389 20.1666 8.00705 20.1666 8.25016V20.6252L16.0829 17.4168H8.24996C8.00684 17.4168 7.77369 17.3203 7.60178 17.1483C7.42987 16.9764 7.33329 16.7433 7.33329 16.5002V15.5835Z" fill="none"/>
</svg>
