<svg width="22" height="22" viewBox="0 0 22 22" fill="none" xmlns="http://www.w3.org/2000/svg">
<path d="M16.5285 15.2324L20.4545 19.1576L19.1575 20.4547L15.2323 16.5286C13.7718 17.6994 11.9552 18.3362 10.0834 18.3335C5.52937 18.3335 1.83337 14.6375 1.83337 10.0835C1.83337 5.5295 5.52937 1.8335 10.0834 1.8335C14.6374 1.8335 18.3334 5.5295 18.3334 10.0835C18.336 11.9553 17.6992 13.7719 16.5285 15.2324ZM14.6896 14.5522C15.853 13.3559 16.5027 11.7522 16.5 10.0835C16.5 6.53783 13.6281 3.66683 10.0834 3.66683C6.53771 3.66683 3.66671 6.53783 3.66671 10.0835C3.66671 13.6282 6.53771 16.5002 10.0834 16.5002C11.7521 16.5028 13.3558 15.8531 14.5521 14.6897L14.6896 14.5522ZM11.1632 6.57816C10.8929 6.70026 10.6563 6.88612 10.4736 7.11978C10.2909 7.35344 10.1677 7.62794 10.1144 7.91971C10.0611 8.21149 10.0795 8.51183 10.1678 8.79497C10.2561 9.0781 10.4118 9.33558 10.6216 9.54531C10.8313 9.75503 11.0888 9.91074 11.3719 9.99908C11.655 10.0874 11.9554 10.1057 12.2472 10.0525C12.5389 9.99921 12.8134 9.87595 13.0471 9.69328C13.2808 9.5106 13.4666 9.27396 13.5887 9.00366C13.8296 9.78615 13.8017 10.6268 13.5094 11.3915C13.2171 12.1563 12.6773 12.8013 11.9759 13.2236C11.2745 13.646 10.4519 13.8215 9.63927 13.7221C8.82659 13.6227 8.07056 13.2542 7.49163 12.6752C6.9127 12.0963 6.54418 11.3403 6.4448 10.5276C6.34542 9.71492 6.52088 8.89236 6.94324 8.19099C7.36561 7.48961 8.01056 6.94977 8.77534 6.65748C9.54012 6.36519 10.3807 6.33727 11.1632 6.57816Z" fill="none"/>
</svg>
