<svg width="57" height="57" viewBox="0 0 57 57" fill="none" xmlns="http://www.w3.org/2000/svg">
<path d="M28.5 26.125C31.6494 26.125 34.6699 27.3761 36.8969 29.6031C39.1239 31.8301 40.375 34.8506 40.375 38V52.25H35.625V38C35.6251 36.1826 34.9307 34.4339 33.684 33.1116C32.4372 31.7894 30.7322 30.9935 28.918 30.8869L28.5 30.875C26.6826 30.8749 24.9339 31.5693 23.6116 32.816C22.2894 34.0628 21.4935 35.7678 21.3869 37.582L21.375 38V52.25H16.625V38C16.625 34.8506 17.8761 31.8301 20.1031 29.6031C22.3301 27.3761 25.3506 26.125 28.5 26.125ZM13.0625 33.25C13.7251 33.25 14.3687 33.3284 14.9862 33.4732C14.5802 34.6821 14.3397 35.9404 14.2714 37.2139L14.25 38V38.2043C13.977 38.1066 13.693 38.0428 13.4045 38.0143L13.0625 38C12.1769 38 11.3231 38.3299 10.6675 38.9253C10.0119 39.5208 9.60164 40.339 9.51662 41.2205L9.5 41.5625V52.25H4.75V41.5625C4.75 39.3579 5.62578 37.2436 7.18467 35.6847C8.74357 34.1258 10.8579 33.25 13.0625 33.25V33.25ZM43.9375 33.25C46.1421 33.25 48.2564 34.1258 49.8153 35.6847C51.3742 37.2436 52.25 39.3579 52.25 41.5625V52.25H47.5V41.5625C47.5 40.6769 47.1701 39.8231 46.5747 39.1675C45.9792 38.5119 45.161 38.1016 44.2795 38.0166L43.9375 38C43.5219 38 43.1229 38.0712 42.75 38.2019V38C42.75 36.4182 42.4935 34.8982 42.0161 33.478C42.6312 33.3284 43.2749 33.25 43.9375 33.25ZM13.0625 19C14.6372 19 16.1474 19.6256 17.2609 20.7391C18.3744 21.8526 19 23.3628 19 24.9375C19 26.5122 18.3744 28.0224 17.2609 29.1359C16.1474 30.2494 14.6372 30.875 13.0625 30.875C11.4878 30.875 9.97755 30.2494 8.86405 29.1359C7.75056 28.0224 7.125 26.5122 7.125 24.9375C7.125 23.3628 7.75056 21.8526 8.86405 20.7391C9.97755 19.6256 11.4878 19 13.0625 19V19ZM43.9375 19C45.5122 19 47.0224 19.6256 48.1359 20.7391C49.2494 21.8526 49.875 23.3628 49.875 24.9375C49.875 26.5122 49.2494 28.0224 48.1359 29.1359C47.0224 30.2494 45.5122 30.875 43.9375 30.875C42.3628 30.875 40.8526 30.2494 39.7391 29.1359C38.6256 28.0224 38 26.5122 38 24.9375C38 23.3628 38.6256 21.8526 39.7391 20.7391C40.8526 19.6256 42.3628 19 43.9375 19V19ZM13.0625 23.75C12.7476 23.75 12.4455 23.8751 12.2228 24.0978C12.0001 24.3205 11.875 24.6226 11.875 24.9375C11.875 25.2524 12.0001 25.5545 12.2228 25.7772C12.4455 25.9999 12.7476 26.125 13.0625 26.125C13.3774 26.125 13.6795 25.9999 13.9022 25.7772C14.1249 25.5545 14.25 25.2524 14.25 24.9375C14.25 24.6226 14.1249 24.3205 13.9022 24.0978C13.6795 23.8751 13.3774 23.75 13.0625 23.75ZM43.9375 23.75C43.6226 23.75 43.3205 23.8751 43.0978 24.0978C42.8751 24.3205 42.75 24.6226 42.75 24.9375C42.75 25.2524 42.8751 25.5545 43.0978 25.7772C43.3205 25.9999 43.6226 26.125 43.9375 26.125C44.2524 26.125 44.5545 25.9999 44.7772 25.7772C44.9999 25.5545 45.125 25.2524 45.125 24.9375C45.125 24.6226 44.9999 24.3205 44.7772 24.0978C44.5545 23.8751 44.2524 23.75 43.9375 23.75ZM28.5 4.75C31.0196 4.75 33.4359 5.75089 35.2175 7.53249C36.9991 9.31408 38 11.7304 38 14.25C38 16.7696 36.9991 19.1859 35.2175 20.9675C33.4359 22.7491 31.0196 23.75 28.5 23.75C25.9804 23.75 23.5641 22.7491 21.7825 20.9675C20.0009 19.1859 19 16.7696 19 14.25C19 11.7304 20.0009 9.31408 21.7825 7.53249C23.5641 5.75089 25.9804 4.75 28.5 4.75V4.75ZM28.5 9.5C27.2402 9.5 26.032 10.0004 25.1412 10.8912C24.2504 11.782 23.75 12.9902 23.75 14.25C23.75 15.5098 24.2504 16.718 25.1412 17.6088C26.032 18.4996 27.2402 19 28.5 19C29.7598 19 30.968 18.4996 31.8588 17.6088C32.7496 16.718 33.25 15.5098 33.25 14.25C33.25 12.9902 32.7496 11.782 31.8588 10.8912C30.968 10.0004 29.7598 9.5 28.5 9.5V9.5Z" fill="url(#paint0_linear_5_780)"/>
<defs>
<linearGradient id="paint0_linear_5_780" x1="6.84635" y1="2.53001" x2="54.4376" y2="49.0273" gradientUnits="userSpaceOnUse">
<stop stop-color="#AB67FF"/>
<stop offset="1" stop-color="#00D48A"/>
</linearGradient>
</defs>
</svg>
