<svg width="22" height="22" viewBox="0 0 22 22" fill="none" xmlns="http://www.w3.org/2000/svg">
<path d="M3.66663 20.1665C3.66663 18.2216 4.43924 16.3563 5.81451 14.9811C7.18978 13.6058 9.05504 12.8332 11 12.8332C12.9449 12.8332 14.8101 13.6058 16.1854 14.9811C17.5607 16.3563 18.3333 18.2216 18.3333 20.1665H16.5C16.5 18.7078 15.9205 17.3089 14.889 16.2774C13.8576 15.246 12.4587 14.6665 11 14.6665C9.54127 14.6665 8.14232 15.246 7.11087 16.2774C6.07942 17.3089 5.49996 18.7078 5.49996 20.1665H3.66663ZM11 11.9165C7.96121 11.9165 5.49996 9.45525 5.49996 6.4165C5.49996 3.37775 7.96121 0.916504 11 0.916504C14.0387 0.916504 16.5 3.37775 16.5 6.4165C16.5 9.45525 14.0387 11.9165 11 11.9165ZM11 10.0832C13.0258 10.0832 14.6666 8.44234 14.6666 6.4165C14.6666 4.39067 13.0258 2.74984 11 2.74984C8.97413 2.74984 7.33329 4.39067 7.33329 6.4165C7.33329 8.44234 8.97413 10.0832 11 10.0832Z" fill="none"/>
</svg>
